<?xml version="1.0" encoding="UTF-8" standalone="no"?>
<svg
   width="576.20367"
   height="510.11429"
   viewBox="0 0 576.20368 510.11429"
   version="1.1"
   id="svg20"
   sodipodi:docname="CapaKita_Visual.svg"
   inkscape:version="1.4.2 (1:1.4.2+202505120738+ebf0e940d0)"
   xmlns:inkscape="http://www.inkscape.org/namespaces/inkscape"
   xmlns:sodipodi="http://sodipodi.sourceforge.net/DTD/sodipodi-0.dtd"
   xmlns="http://www.w3.org/2000/svg"
   xmlns:svg="http://www.w3.org/2000/svg">
  <defs
     id="defs20" />
  <sodipodi:namedview
     id="namedview20"
     pagecolor="#ffffff"
     bordercolor="#000000"
     borderopacity="0.25"
     inkscape:showpageshadow="2"
     inkscape:pageopacity="0.0"
     inkscape:pagecheckerboard="0"
     inkscape:deskcolor="#d1d1d1"
     inkscape:zoom="0.95214844"
     inkscape:cx="289.34564"
     inkscape:cy="256.26256"
     inkscape:window-width="1080"
     inkscape:window-height="1888"
     inkscape:window-x="1920"
     inkscape:window-y="0"
     inkscape:window-maximized="1"
     inkscape:current-layer="svg20" />
  <rect
     style="fill:#ffffff;stroke:none;stroke-width:0.377953;stroke-linejoin:round"
     id="rect20"
     width="575.82574"
     height="509.73633"
     x="0.1889765"
     y="0.1889765" />
  <path
     fill="#cbb190"
     d="m 341.89076,117.35412 c 10.344,-2.514 21.039,-4.061 31.278,-6.883 -2.327,10.496 -4.764,20.966 -7.311,31.411 -2.719,-2.614 -5.488,-5.194 -8.102,-7.912 -0.067,26.898 0.431,53.98 -0.571,80.852 -7.716,7.43 -15.148,15.149 -22.778,22.666 -4.555,-4.227 -12.413,-15.108 -19.143,-14.962 -2.303,0.05 -5.369,2.939 -7.06,4.445 -7.588,6.76 -14.513,14.689 -21.718,21.895 -19.344,19.347 -38.463,39.107 -58.167,58.077 -7.549,0.121 -15.099,0.172 -22.649,0.153 -15.707,-0.94 -32.208,-0.08 -47.996,-0.049 l -0.049,-47.843 c 16.377,-15.479 31.557,-32.319 47.863,-47.888 5.814,-5.645 11.563,-11.357 17.246,-17.134 0.155,0.119 0.31,0.236 0.463,0.357 8.46,6.677 16.036,15.603 23.623,23.288 2.997,3.036 6.04,6.517 9.586,8.914 1.348,0.912 2.67,1.347 4.317,1.196 2.594,-0.238 4.803,-1.765 6.751,-3.377 4.834,-4 9.084,-8.986 13.464,-13.493 5.46,-5.619 11.107,-11.065 16.609,-16.646 l 59.904,-60.903 c -5.082,-5.488 -10.27,-10.877 -15.56,-16.164 z"
     id="path1" />
  <path
     fill="#232e40"
     d="m 157.62476,259.20412 c 16.377,-15.479 31.557,-32.319 47.863,-47.888 0.621,11.31 0.23,22.824 0.229,34.159 l -0.047,61.621 c -15.707,-0.94 -32.208,-0.08 -47.996,-0.049 z"
     id="path2" />
  <path
     fill="#232e40"
     d="m 420.45176,192.41012 c 0.157,0.201 0.381,0.364 0.469,0.603 0.464,1.247 -0.202,103.174 -0.219,113.946 -57.231,-0.162 -114.462,-0.026 -171.691,0.407 4.137,-3.571 7.808,-7.709 11.746,-11.501 9.024,-9.884 19.088,-19.105 28.615,-28.522 8.754,-8.652 17.325,-17.931 26.615,-25.991 7.362,4.327 21.544,23.288 28.198,23.684 2.182,0.129 3.849,-0.946 5.497,-2.256 5.774,-4.588 10.761,-10.732 16.034,-15.924 l 41.158,-40.931 c 4.547,-4.458 8.853,-9.255 13.578,-13.515 z"
     id="path3" />
  <path
     fill="#232e40"
     d="m 248.33076,98.493125 c 0.284,-17.027 10.827,-32.194 26.688,-38.395 15.86,-6.2 33.895,-2.204 45.652,10.115 11.757,12.319 14.907,30.519995 7.973,46.073995 -8.122,18.22 -27.945,28.208 -47.421,23.893 -19.477,-4.316 -33.226,-21.741 -32.892,-41.686995 z"
     id="path4" />
  <path
     fill="#cbb190"
     d="m 289.96676,83.470125 c 4.065,12.498 11.26,22.560995 23.248,28.561995 4.951,2.479 9.983,3.551 15.429,4.255 -8.122,18.22 -27.945,28.208 -47.421,23.893 -19.477,-4.316 -33.226,-21.741 -32.892,-41.686995 12.637,1.636995 25.462,-1.498 35.601,-9.366 2.182,-1.693 4.07,-3.726 6.035,-5.657 z"
     id="path5" />
  <path
     fill="#7aa6c1"
     d="m 157.36176,238.52512 c 0.716,-15.12 0.037,-30.604 0.063,-45.761 0.013,-7.706 -0.297,-15.615 1.068,-23.225 0.903,-5.127 2.669,-10.064 5.221,-14.6 6.242,-11.393 16.759,-19.834 29.232,-23.463 12.703,-3.65 26.343,-2.007 37.816,4.557 10.54,5.97 19.096,16.267 22.389,27.985 -4.143,6.353 -7.456,12.113 -8.868,19.658 -0.541,2.891 -0.665,5.887 -1.358,8.739 -3.808,-3.726 -7.333,-7.739 -11.097,-11.511 -2.391,-2.397 -5.434,-5.456 -9.055,-5.367 -2.028,0.05 -3.592,0.795 -5.175,2.025 -5.922,4.601 -15.296,15.377 -20.967,21.205 -13.011,13.329 -26.102,26.582 -39.269,39.758 z"
     id="path6" />
  <path
     fill="#232e40"
     d="m 164.78376,81.937125 c -0.64,-3.468 -1.126,-6.853 -1.012,-10.387 0.317,-9.84 4.294,-19.275 11.545,-26.009 7.107,-6.601001 17.012,-10.424001 26.728,-9.986001 9.702,0.437 19.42,4.96 25.882,12.233001 6.087,6.853 9.591,16.945 8.997,26.099 -0.868,10.915 -4.499,20.067 -13.069,27.269995 -7.435,6.248 -16.976,8.547 -26.544,7.679 -9.371,-0.85 -17.228,-4.966 -24.096,-11.227995 -0.737,1.394 -1.488,2.693995 -2.548,3.872995 -2.317,2.581 -5.157,4.254 -8.678,4.36 -3.434,0.104 -6.697,-1.225 -9.171,-3.583 -2.499,-2.381995 -4.02,-5.642995 -3.975,-9.121995 0.039,-3.068 1.075,-5.975 3.393,-8.054 3.674,-3.295 7.936,-3.292 12.548,-3.145 z"
     id="path7" />
  <path
     fill="#cbb190"
     d="m 206.75476,58.339125 c 4.54,5.717 11.539,10.867 18.704,12.665 3.554,0.892 7.411,1.063 11.026,1.722 l 0.439,1.161 c -0.868,10.915 -4.499,20.067 -13.069,27.269995 -7.435,6.248 -16.976,8.547 -26.544,7.679 -9.371,-0.85 -17.228,-4.966 -24.096,-11.227995 -3.021,-3.467 -5.059,-7.341 -7.134,-11.413 4.901,-0.318 9.507,-1.11 14.132,-2.791 12.669,-4.603 20.959,-12.992 26.542,-25.065 z"
     id="path8" />
  <path
     fill="#232e40"
     d="m 222.39376,393.18512 c 1.511,-0.032 3.059,0.024 4.56,0.193 7.015,0.789 13.119,4.307 17.405,9.907 5.362,7.004 7.208,16.44 6.002,25.076 -1.118,8.003 -4.795,15.54 -11.494,20.344 -5.675,4.019 -12.722,5.6 -19.57,4.391 -5.798,-1.078 -10.939,-4.394 -14.312,-9.232 0.156,5.451 0.087,10.915 0.094,16.368 l -0.049,14.297 -14.237,0.064 c 0.715,-13.581 0.002,-27.409 -0.018,-41.02 -0.018,-12.927 0.64,-26.02 0.222,-38.92 4.388,0.304 8.991,-0.092 13.389,-0.227 0.181,2.591 0.205,5.207 0.294,7.803 5.448,-5.62 9.85,-8.192 17.714,-9.044 z m -0.153,48.176 c 4.826,-1.195 8.512,-2.685 11.275,-7.135 2.983,-4.804 3.479,-11.081 2.071,-16.482 -1.204,-4.618 -3.961,-8.667 -8.24,-10.921 -2.557,-1.346 -5.449,-1.905 -8.318,-1.823 -4.703,1.073 -8.293,2.853 -11.062,7.013 -3.202,4.81 -3.672,10.999 -2.373,16.522 1.013,4.304 3.337,8.303 7.16,10.672 2.914,1.806 6.111,2.384 9.487,2.154 z"
     id="path9" />
  <path
     fill="#cbb190"
     d="m 328.74976,372.13612 14.62,-0.079 c -0.352,8.626 -0.146,17.297 -0.15,25.93 -0.002,4.503 0.289,9.299 -0.486,13.74 11.213,-13.427 23.176,-26.175 34.728,-39.304 5.612,-0.448 11.237,0.205 16.855,-0.471 -8.26,11.875 -22.207,22.901 -29.687,34.556 l 19.844,27.72 c 4.338,6.21 8.757,12.172 13.828,17.819 l -17.423,0.287 c -4.106,-3.766 -7.427,-9.742 -10.65,-14.334 -5.023,-7.15 -10.101,-14.261 -15.235,-21.331 -3.935,4.725 -8.227,9.197 -12.382,13.732 -0.106,7.134 0.346,14.357 0.614,21.488 l -14.031,0.037 c 0.063,-18.293 -0.085,-36.586 -0.445,-54.875 -0.087,-8.3 0.327,-16.622 0,-24.915 z"
     id="path10" />
  <path
     fill="#232e40"
     d="m 78.305756,370.72212 c 7.313,0.145 13.984,0.695 20.635,3.992 6.593004,3.268 13.612004,9.963 15.962004,17.037 -1.204,2.708 -9.759,5.307 -12.609,6.496 -0.921,-1.794 -1.979,-3.67 -3.209004,-5.271 -3.88,-5.046 -9.701,-8.229 -16.043,-8.772 -6.824,-0.634 -14.598,1.631 -19.777,6.085 -5.571,4.791 -8.488,11.972 -8.99,19.191 -0.562,8.076 1.928,16.595 7.365,22.684 4.544,5.09 11.162,8.417 18.01,8.702 6.322,0.263 12.593,-2.151 17.309,-6.312 2.403,-2.548 4.041004,-5.197 5.647004,-8.277 4.12,2.119 8.26,4.04 12.532,5.834 -1.265,2.611 -2.395,5.126 -4.163,7.453 -5.939,7.814 -14.798004,12.162 -24.420004,13.405 -10.823,1.398 -22.371,-1.05 -31.081,-7.792 -8.446,-6.462 -13.873,-16.105 -15.015,-26.678 -1.386,-11.831 1.165,-23.847 8.778,-33.211 7.512,-9.241 17.447,-13.43 29.069,-14.566 z"
     id="path11" />
  <path
     fill="#232e40"
     d="m 146.99176,393.21412 0.687,-0.034 c 7.429,-0.321 15.458,0.645 21.065,6.03 2.824,2.711 4.718,6.229 5.699,10.001 2.254,8.669 0.878,32.289 1.054,42.712 -4.456,-0.096 -8.898,0.008 -13.352,0.114 -0.085,-2.47 -0.06,-4.952 -0.083,-7.424 -0.732,0.846 -1.473,1.696 -2.282,2.469 -4.618,4.409 -11.088,6.517 -17.414,6.256 -7.105,-0.293 -12.03,-2.995 -16.703,-8.162 -1.81,-3.297 -2.924,-6.354 -3.064,-10.156 -0.143,-3.886 1.22,-7.531 3.924,-10.329 8.009,-8.289 23.708,-6.651 34.215,-6.612 0.056,-3.849 0.071,-7.287 -2.694,-10.27 -2.075,-2.239 -5.065,-3.044 -8.039,-3.035 -6.926,0.022 -12.215,3.3 -16.956,7.997 -2.207,-2.838 -4.526,-5.639 -6.382,-8.723 -0.038,-1.157 -0.104,-1.533 0.588,-2.526 3.524,-5.057 14.04,-7.477 19.737,-8.308 z m 6.591,48.06 c 3.22,-1.656 5.607,-3.026 6.705,-6.666 0.715,-2.37 0.652,-5.269 0.798,-7.742 -5.423,-0.08 -11.041,-0.327 -16.438,0.253 -2.753,0.512 -5.173,1.306 -6.752,3.796 -0.941,1.484 -1.143,3.223 -0.706,4.913 0.588,2.274 2.228,4.136 4.281,5.228 3.972,2.115 7.995,1.437 12.112,0.218 z"
     id="path12" />
  <path
     fill="#cbb190"
     d="m 508.36976,393.19612 c 7.47,-0.096 14.873,0.531 20.569,6.018 2.912,2.805 4.789,6.313 5.781,10.214 2.326,9.142 1.005,32.171 1.068,42.706 -4.447,-0.042 -8.893,0.04 -13.335,0.246 -0.112,-2.603 -0.146,-5.051 0.172,-7.65 -0.398,0.341 -0.8,0.679 -1.205,1.013 -6.351,5.262 -13.237,8.289 -21.713,7.335 -6.293,-0.708 -10.75,-3.655 -14.543,-8.572 -1.444,-2.85 -2.214,-5.783 -2.335,-8.986 -0.148,-3.938 1.178,-7.612 3.993,-10.4 8.153,-8.075 24.133,-6.691 34.611,-6.709 -0.215,-4.076 -0.622,-7.653 -3.74,-10.606 -2.365,-2.24 -5.641,-3.04 -8.825,-2.973 -6.839,0.144 -11.292,3.307 -15.848,7.995 -1.556,-2.617 -5.637,-6.353 -6.113,-9.222 0.232,-1.283 0.533,-2.09 1.422,-3.032 4.6,-4.874 13.582,-6.956 20.041,-7.377 z m 3.585,48.985 c 3.963,-1.53 6.328,-3.329 9.165,-6.455 0.253,-2.917 0.424,-5.776 0.421,-8.705 -4.83,0.009 -9.76,-0.193 -14.577,0.107 -3.284,0.371 -6.161,0.724 -8.344,3.51 -1.152,1.442 -1.653,3.3 -1.382,5.126 0.311,2.219 1.662,4.133 3.525,5.339 3.532,2.286 7.276,1.629 11.192,1.078 z"
     id="path13" />
  <path
     fill="#232e40"
     d="m 283.02376,393.18312 c 1.034,-0.056 2.069,-0.087 3.105,-0.094 7.101,-0.019 14.867,1.444 19.963,6.785 2.713,2.845 4.402,6.48 5.183,10.31 1.721,8.444 0.505,31.694 0.465,41.78 l -13.011,0.179 -0.002,-7.46 c -1.12,1.239 -2.337,2.454 -3.654,3.481 -5.413,4.226 -12.878,5.856 -19.611,4.812 -5.889,-0.914 -10.186,-3.854 -13.633,-8.63 -1.696,-3.271 -2.599,-6.342 -2.588,-10.063 0.01,-3.889 1.66,-7.372 4.495,-9.999 8.484,-7.864 23.346,-6.274 33.998,-6.136 0.023,-2.788 -0.288,-5.261 -0.789,-7.99 l -0.286,-0.335 c -0.52,-0.617 -1.032,-1.239 -1.59,-1.823 -2.384,-2.496 -6.326,-3.515 -9.69,-3.44 -6.721,0.149 -11.142,3.474 -15.554,8.114 -2.365,-3.277 -4.941,-6.357 -7.531,-9.456 5.932,-6.586 12.313,-8.633 20.73,-10.035 z m 1.279,49.514 c 5.22,-0.669 8.473,-2.292 12.535,-5.596 0.939,-3.539 1.08,-7.037 1.265,-10.679 l -9.862,0.289 c -4.65,0.1 -9.411,-0.101 -12.871,3.612 -1.404,1.506 -2.352,3.579 -2.104,5.67 0.23,1.936 1.429,3.486 2.988,4.578 2.393,1.676 5.196,2.082 8.049,2.126 z"
     id="path14" />
  <path
     fill="#cbb190"
     d="m 253.15076,164.01812 c 8.452,-9.044 19.391,-14.153 31.838,-14.662 10.131,-0.415 19.125,2.847 27.96,7.496 -6.568,6.846 -48.56,50.994 -52.849,51.59 -5.675,-2.785 -12.546,-11.317 -17.175,-16.027 0.693,-2.852 0.817,-5.848 1.358,-8.739 1.412,-7.545 4.725,-13.305 8.868,-19.658 z"
     id="path15" />
  <path
     fill="#cbb190"
     d="m 442.70276,379.00412 14.366,-0.133 c -0.157,5.202 -0.194,10.406 -0.112,15.609 l 16.178,-0.106 0.033,11.646 c -5.484,-0.05 -10.969,-0.037 -16.453,0.04 0.23,7.254 -1.268,22.546 0.419,28.66 0.613,2.224 1.822,4.149 3.928,5.207 3.321,1.667 6.66,0.404 9.918,-0.71 0.864,2.243 1.905,4.421 2.895,6.61 l 1.638,3.677 c -4.289,2.013 -8.622,3.606 -13.425,3.682 -5.274,0.083 -10.234,-1.605 -13.906,-5.482 -8.089,-8.545 -6.013,-29.839 -5.578,-41.245 l -9.528,-0.08 0.045,-11.958 9.525,-0.38 c -0.036,-5.012 -0.017,-10.025 0.057,-15.037 z"
     id="path16" />
  <path
     fill="#7aa6c1"
     d="m 405.54576,165.76912 c 3.224,3.169 6.288,6.929 9.709,9.84 -14.898,16.819 -31.548,32.623 -47.457,48.501 -7.626,7.612 -15.088,16.642 -23.61,23.153 l -9.781,-9.775 c 7.63,-7.517 15.062,-15.236 22.778,-22.666 3.534,-2.097 8.26,-8.13 11.41,-11.319 z"
     id="path17" />
  <path
     fill="#cbb190"
     d="m 407.34176,394.40312 c 4.784,10e-4 9.569,-0.024 14.353,-0.075 -0.788,19.213 -0.827,38.853 -0.114,58.07 -4.752,-0.389 -9.529,-0.377 -14.28,0.037 0.428,-19.306 0.031,-38.715 0.041,-58.032 z"
     id="path18" />
  <path
     fill="#232e40"
     d="m 397.63376,157.17212 c 10.298,-2.004 20.59,-4.178 30.914,-6.032 -1.99,10.609 -4.102,21.196 -6.335,31.757 -2.197,-2.589 -4.294,-5.158 -6.958,-7.288 -3.421,-2.911 -6.485,-6.671 -9.709,-9.84 -2.635,-2.865 -5.234,-5.774 -7.912,-8.597 z"
     id="path19" />
  <path
     fill="#cbb190"
     d="m 411.21176,367.54012 c 1.247,-0.104 2.505,-0.198 3.756,-0.098 2.555,0.221 4.901,1.496 6.476,3.519 1.549,1.983 2.163,4.539 1.683,7.009 -0.666,3.552 -2.774,5.327 -5.66,7.225 -1.452,0.385 -2.826,0.747 -4.337,0.482 -2.53,-0.445 -4.745,-1.963 -6.073,-4.162 -1.384,-2.346 -1.77,-5.149 -1.071,-7.781 0.813,-3.158 2.53,-4.564 5.226,-6.194 z"
     id="path20" />
</svg>
