<?xml version="1.0" encoding="UTF-8" standalone="no"?>
<svg
   width="279.24207"
   height="271.84497"
   viewBox="0 0 279.24207 271.84497"
   version="1.1"
   id="svg20"
   sodipodi:docname="CapaKita_Icon.svg"
   inkscape:version="1.4.2 (1:1.4.2+202505120738+ebf0e940d0)"
   xmlns:inkscape="http://www.inkscape.org/namespaces/inkscape"
   xmlns:sodipodi="http://sodipodi.sourceforge.net/DTD/sodipodi-0.dtd"
   xmlns="http://www.w3.org/2000/svg"
   xmlns:svg="http://www.w3.org/2000/svg">
  <defs
     id="defs20" />
  <sodipodi:namedview
     id="namedview20"
     pagecolor="#ffffff"
     bordercolor="#000000"
     borderopacity="0.25"
     inkscape:showpageshadow="2"
     inkscape:pageopacity="0.0"
     inkscape:pagecheckerboard="0"
     inkscape:deskcolor="#d1d1d1"
     inkscape:zoom="0.78050156"
     inkscape:cx="701.47201"
     inkscape:cy="297.24476"
     inkscape:window-width="1920"
     inkscape:window-height="1168"
     inkscape:window-x="4920"
     inkscape:window-y="325"
     inkscape:window-maximized="1"
     inkscape:current-layer="svg20" />
  <path
     fill="#cbb190"
     d="m 208.45006,98.448967 c -0.067,26.898003 0.431,53.980003 -0.571,80.852003 -7.716,7.43 -15.148,15.149 -22.778,22.666 -4.555,-4.227 -12.413,-15.108 -19.143,-14.962 -2.303,0.05 -5.369,2.939 -7.06,4.445 -7.588,6.76 -14.513,14.689 -21.718,21.895 -19.344,19.347 -38.462999,39.107 -58.166999,58.077 -7.549,0.121 -15.099,0.172 -22.649,0.153 -15.707,-0.94 -32.208,-0.08 -47.996,-0.049 l -0.049,-47.843 c 16.377,-15.479 31.557,-32.319 47.863,-47.888 5.814,-5.645 11.563,-11.357 17.246,-17.134 0.155,0.119 0.31,0.236 0.463,0.357 8.46,6.677 16.036,15.603 23.623,23.288 2.996999,3.036 6.039999,6.517 9.585999,8.914 1.348,0.912 2.67,1.347 4.317,1.196 2.594,-0.238 4.803,-1.765 6.751,-3.377 4.834,-4 9.084,-8.986 13.464,-13.493 5.46,-5.619 11.107,-11.065 16.609,-16.646 l 59.904,-60.903003 c -5.082,-5.488 2.919,3.170003 0.305,0.452 z"
     id="path1"
     style="fill:#f26e2e;fill-opacity:1;stroke:none"
     sodipodi:nodetypes="cccsccccccccccccccccc" />
  <path
     fill="#232e40"
     d="m 8.319061,223.68297 c 16.377,-15.479 31.557,-32.319 47.863,-47.888 0.621,11.31 0.23,22.824 0.229,34.159 l -0.047,61.621 c -15.707,-0.94 -32.208,-0.08 -47.996,-0.049 z"
     id="path2"
     style="fill:#faa513;fill-opacity:1;stroke:none" />
  <path
     fill="#232e40"
     d="m 271.14606,156.88897 c 0.157,0.201 0.381,0.364 0.469,0.603 0.464,1.247 -0.202,103.174 -0.219,113.946 -57.231,-0.162 -114.462,-0.026 -171.690999,0.407 4.136999,-3.571 7.807999,-7.709 11.745999,-11.501 9.024,-9.884 19.088,-19.105 28.615,-28.522 8.754,-8.652 17.325,-17.931 26.615,-25.991 7.362,4.327 21.544,23.288 28.198,23.684 2.182,0.129 3.849,-0.946 5.497,-2.256 5.774,-4.588 10.761,-10.732 16.034,-15.924 l 41.158,-40.931 c 4.547,-4.458 8.853,-9.255 13.578,-13.515 z"
     id="path3"
     style="fill:#083743;fill-opacity:1;stroke:none" />
  <path
     fill="#232e40"
     d="m 99.488881,62.578471 c 0.28132,-16.864681 10.723829,-31.887092 26.433609,-38.028977 15.70878,-6.140896 33.57185,-2.182989 45.2168,10.018572 11.64492,12.201562 14.76487,30.229061 7.89697,45.634771 -8.04454,18.04632 -27.67857,27.939083 -46.96889,23.665223 C 112.77601,99.593197 99.158081,82.334337 99.488881,62.578471 Z"
     id="path4"
     style="fill:#083743;fill-opacity:1;stroke:none;stroke-width:0.999987" />
  <path
     fill="#cbb190"
     d="m 140.66106,47.948972 c 4.065,12.498 11.26,22.560995 23.248,28.561995 4.951,2.479 9.983,3.551 15.429,4.255 -8.122,18.22 -27.945,28.208003 -47.421,23.893003 -19.477,-4.316 -33.225999,-21.741003 -32.891999,-41.686998 12.636999,1.636995 25.461999,-1.498 35.600999,-9.366 2.182,-1.693 4.07,-3.726 6.035,-5.657 z"
     id="path5"
     style="fill:#faa513;fill-opacity:1;stroke:none" />
  <path
     fill="#7aa6c1"
     d="m 8.056061,203.00397 c 0.716,-15.12 0.037,-30.604 0.063,-45.761 0.013,-7.706 -0.297,-15.615 1.068,-23.225 0.903,-5.127 2.669,-10.064 5.221,-14.6 6.242,-11.393 16.759,-19.834003 29.232,-23.463003 12.703,-3.65 26.343,-2.007 37.816,4.557003 10.54,5.97 19.095999,16.267 22.388999,27.985 -4.142999,6.353 -7.455999,12.113 -8.867999,19.658 -0.541,2.891 -0.665,5.887 -1.358,8.739 -3.808,-3.726 -7.333,-7.739 -11.097,-11.511 -2.391,-2.397 -5.434,-5.456 -9.055,-5.367 -2.028,0.05 -3.592,0.795 -5.175,2.025 -5.922,4.601 -15.296,15.377 -20.967,21.205 -13.011,13.329 -26.102,26.582 -39.269,39.758 z"
     id="path6"
     style="fill:#f26e2e;fill-opacity:1;stroke:none" />
  <path
     fill="#232e40"
     d="m 15.761061,45.889329 c -0.63272,-3.428651 -1.11322,-6.775245 -1.00052,-10.269148 0.3134,-9.728354 4.24529,-19.056301 11.41405,-25.7138955 7.02632,-6.526109 16.81899,-10.30573204 26.42469,-9.87269904 9.59197,0.432044 19.19967,4.90372504 25.58836,12.09420354 6.01794,6.775245 9.48218,16.75274 8.89494,25.802876 -0.85816,10.791158 -4.44796,19.839316 -12.92074,26.960601 -7.35063,6.17709 -16.78337,8.44999 -26.24283,7.59187 -9.26467,-0.84038 -17.0325,-4.90967 -23.82259,-11.100614 -0.72861,1.378185 -1.4711,2.663435 -2.51909,3.829044 -2.2907,2.5517 -5.0985,4.20575 -8.57952,4.31055 -3.39506,0.10283 -6.62106,-1.2111 -9.06696,-3.54235 C 1.460171,63.62479 -0.04353897,60.40079 9.610256e-4,56.961263 0.03956103,53.928073 1.063761,51.054056 3.355451,48.998646 c 3.6323,-3.257615 7.84599,-3.254648 12.40561,-3.109317 z"
     id="path7"
     style="fill:#083743;fill-opacity:1;stroke:none;stroke-width:0.999993" />
  <path
     fill="#cbb190"
     d="m 57.449061,22.817972 c 4.54,5.717 11.539,10.867 18.704,12.665 3.554,0.892 7.411,1.063 11.026,1.722 l 0.439,1.161 c -0.868,10.915 -4.499,20.067 -13.069,27.269995 -7.435,6.248 -16.976,8.547 -26.544,7.679 -9.371,-0.85 -17.228,-4.966 -24.096,-11.227995 -3.021,-3.467 -5.059,-7.341 -7.134,-11.413 4.901,-0.318 9.507,-1.11 14.132,-2.791 12.669,-4.603 20.959,-12.992 26.542,-25.065 z"
     id="path8"
     style="fill:#faa513;fill-opacity:1;stroke:none" />
  <path
     fill="#cbb190"
     d="m 103.84506,128.49697 c 8.452,-9.044 19.391,-14.153 31.838,-14.662 10.131,-0.415 19.125,2.847 27.96,7.496 -6.568,6.846 -48.56,50.994 -52.849,51.59 -5.675,-2.785 -12.545999,-11.317 -17.174999,-16.027 0.693,-2.852 0.817,-5.848 1.358,-8.739 1.412,-7.545 4.725,-13.305 8.867999,-19.658 z"
     id="path15"
     style="fill:#faa513;fill-opacity:1;stroke:none" />
  <path
     fill="#7aa6c1"
     d="m 256.24006,130.24797 c 3.224,3.169 6.288,6.929 9.709,9.84 -14.898,16.819 -31.548,32.623 -47.457,48.501 -7.626,7.612 -15.088,16.642 -23.61,23.153 l -9.781,-9.775 c 7.63,-7.517 15.062,-15.236 22.778,-22.666 3.534,-2.097 8.26,-8.13 11.41,-11.319 z"
     id="path17"
     style="fill:#faa513;fill-opacity:1;stroke:none" />
  <path
     fill="#232e40"
     d="m 248.32806,121.65097 c 10.298,-2.004 20.59,-4.178 30.914,-6.032 -1.99,10.609 -4.102,21.196 -6.335,31.757 -2.197,-2.589 -4.294,-5.158 -6.958,-7.288 -3.421,-2.911 -6.485,-6.671 -9.709,-9.84 -2.635,-2.865 -5.234,-5.774 -7.912,-8.597 z"
     id="path19"
     style="fill:#faa513;fill-opacity:1;stroke:none" />
  <rect
     style="fill:#ffffff;stroke:#4d4d4d;stroke-width:0.377953;stroke-linejoin:round"
     id="rect1"
     width="77.589645"
     height="51.519524"
     x="474.51505"
     y="70.000755" />
  <rect
     style="fill:#083743;fill-opacity:1;stroke:none;stroke-width:0.377953;stroke-linejoin:round"
     id="rect2"
     width="77.589645"
     height="51.519524"
     x="474.51505"
     y="70.000755" />
  <rect
     style="fill:#d97b24;fill-opacity:1;stroke:none;stroke-width:0.377953;stroke-linejoin:round"
     id="rect3"
     width="77.589645"
     height="51.519524"
     x="474.51505"
     y="173.03983" />
  <rect
     style="fill:#435343;fill-opacity:1;stroke:none;stroke-width:0.377953;stroke-linejoin:round"
     id="rect4"
     width="77.589645"
     height="51.519524"
     x="474.51505"
     y="121.52029" />
  <rect
     style="fill:#faa513;fill-opacity:1;stroke:none;stroke-width:0.377953;stroke-linejoin:round"
     id="rect5"
     width="77.589645"
     height="51.519524"
     x="474.51505"
     y="224.55936" />
  <rect
     style="fill:#f26e2e;fill-opacity:1;stroke:none;stroke-width:0.377953;stroke-linejoin:round"
     id="rect6"
     width="77.589645"
     height="51.519524"
     x="474.51505"
     y="276.07889" />
  <rect
     style="fill:#fbf5ed;fill-opacity:1;stroke:none;stroke-width:0.377953;stroke-linejoin:round"
     id="rect7"
     width="325.83429"
     height="51.519516"
     x="574.67236"
     y="69.060432" />
  <text
     xml:space="preserve"
     style="font-size:37.7953px;line-height:1.2;font-family:DynaPuff;-inkscape-font-specification:'DynaPuff, Normal';font-variation-settings:normal;text-align:center;letter-spacing:0px;writing-mode:lr-tb;direction:ltr;text-anchor:middle;opacity:1;vector-effect:none;fill:#faa513;fill-opacity:1;stroke:none;stroke-width:0.377953;stroke-linecap:butt;stroke-linejoin:round;stroke-miterlimit:4;stroke-dasharray:none;stroke-dashoffset:0;stroke-opacity:1;-inkscape-stroke:none"
     x="737.6264"
     y="106.68659"
     id="text8"><tspan
       sodipodi:role="line"
       id="tspan8"
       x="737.6264"
       y="106.68659"
       style="font-style:normal;font-variant:normal;font-weight:bold;font-stretch:normal;font-family:Padauk;-inkscape-font-specification:'Padauk Bold';fill:#faa513;fill-opacity:1">Daten &amp; Szenarien</tspan></text>
</svg>
