<?xml version="1.0" encoding="utf-8" ?><svg xmlns="http://www.w3.org/2000/svg" xmlns:xlink="http://www.w3.org/1999/xlink" width="1024" height="1024" viewBox="0 0 1024 1024"><path fill="#CBB190" d="M564.699 372.372C575.043 369.858 585.738 368.311 595.977 365.489C593.65 375.985 591.213 386.455 588.666 396.9C585.947 394.286 583.178 391.706 580.564 388.988C580.497 415.886 580.995 442.968 579.993 469.84C572.277 477.27 564.845 484.989 557.215 492.506C552.66 488.279 544.802 477.398 538.072 477.544C535.769 477.594 532.703 480.483 531.012 481.989C523.424 488.749 516.499 496.678 509.294 503.884C489.95 523.231 470.831 542.991 451.127 561.961C443.578 562.082 436.028 562.133 428.478 562.114C412.771 561.174 396.27 562.034 380.482 562.065L380.433 514.222C396.81 498.743 411.99 481.903 428.296 466.334C434.11 460.689 439.859 454.977 445.542 449.2C445.697 449.319 445.852 449.436 446.005 449.557C454.465 456.234 462.041 465.16 469.628 472.845C472.625 475.881 475.668 479.362 479.214 481.759C480.562 482.671 481.884 483.106 483.531 482.955C486.125 482.717 488.334 481.19 490.282 479.578C495.116 475.578 499.366 470.592 503.746 466.085C509.206 460.466 514.853 455.02 520.355 449.439L580.259 388.536C575.177 383.048 569.989 377.659 564.699 372.372Z"/><path fill="#232E40" d="M380.433 514.222C396.81 498.743 411.99 481.903 428.296 466.334C428.917 477.644 428.526 489.158 428.525 500.493L428.478 562.114C412.771 561.174 396.27 562.034 380.482 562.065L380.433 514.222Z"/><path fill="#232E40" d="M643.26 447.428C643.417 447.629 643.641 447.792 643.729 448.031C644.193 449.278 643.527 551.205 643.51 561.977C586.279 561.815 529.048 561.951 471.819 562.384C475.956 558.813 479.627 554.675 483.565 550.883C492.589 540.999 502.653 531.778 512.18 522.361C520.934 513.709 529.505 504.43 538.795 496.37C546.157 500.697 560.339 519.658 566.993 520.054C569.175 520.183 570.842 519.108 572.49 517.798C578.264 513.21 583.251 507.066 588.524 501.874L629.682 460.943C634.229 456.485 638.535 451.688 643.26 447.428Z"/><path fill="#232E40" d="M471.139 353.511C471.423 336.484 481.966 321.317 497.827 315.116C513.687 308.916 531.722 312.912 543.479 325.231C555.236 337.55 558.386 355.751 551.452 371.305C543.33 389.525 523.507 399.513 504.031 395.198C484.554 390.882 470.805 373.457 471.139 353.511Z"/><path fill="#CBB190" d="M512.775 338.488C516.84 350.986 524.035 361.049 536.023 367.05C540.974 369.529 546.006 370.601 551.452 371.305C543.33 389.525 523.507 399.513 504.031 395.198C484.554 390.882 470.805 373.457 471.139 353.511C483.776 355.148 496.601 352.013 506.74 344.145C508.922 342.452 510.81 340.419 512.775 338.488Z"/><path fill="#7AA6C1" d="M380.17 493.543C380.886 478.423 380.207 462.939 380.233 447.782C380.246 440.076 379.936 432.167 381.301 424.557C382.204 419.43 383.97 414.493 386.522 409.957C392.764 398.564 403.281 390.123 415.754 386.494C428.457 382.844 442.097 384.487 453.57 391.051C464.11 397.021 472.666 407.318 475.959 419.036C471.816 425.389 468.503 431.149 467.091 438.694C466.55 441.585 466.426 444.581 465.733 447.433C461.925 443.707 458.4 439.694 454.636 435.922C452.245 433.525 449.202 430.466 445.581 430.555C443.553 430.605 441.989 431.35 440.406 432.58C434.484 437.181 425.11 447.957 419.439 453.785C406.428 467.114 393.337 480.367 380.17 493.543Z"/><path fill="#232E40" d="M387.592 336.955C386.952 333.487 386.466 330.102 386.58 326.568C386.897 316.728 390.874 307.293 398.125 300.559C405.232 293.958 415.137 290.135 424.853 290.573C434.555 291.01 444.273 295.533 450.735 302.806C456.822 309.659 460.326 319.751 459.732 328.905C458.864 339.82 455.233 348.972 446.663 356.175C439.228 362.423 429.687 364.722 420.119 363.854C410.748 363.004 402.891 358.888 396.023 352.626C395.286 354.02 394.535 355.32 393.475 356.499C391.158 359.08 388.318 360.753 384.797 360.859C381.363 360.963 378.1 359.634 375.626 357.276C373.127 354.894 371.606 351.633 371.651 348.154C371.69 345.086 372.726 342.179 375.044 340.1C378.718 336.805 382.98 336.808 387.592 336.955Z"/><path fill="#CBB190" d="M429.563 313.357C434.103 319.074 441.102 324.224 448.267 326.022C451.821 326.914 455.678 327.085 459.293 327.744L459.732 328.905C458.864 339.82 455.233 348.972 446.663 356.175C439.228 362.423 429.687 364.722 420.119 363.854C410.748 363.004 402.891 358.888 396.023 352.626C393.002 349.159 390.964 345.285 388.889 341.213C393.79 340.895 398.396 340.103 403.021 338.422C415.69 333.819 423.98 325.43 429.563 313.357Z"/><path fill="#232E40" d="M445.202 648.203C446.713 648.171 448.261 648.227 449.762 648.396C456.777 649.185 462.881 652.703 467.167 658.303C472.529 665.307 474.375 674.743 473.169 683.379C472.051 691.382 468.374 698.919 461.675 703.723C456 707.742 448.953 709.323 442.105 708.114C436.307 707.036 431.166 703.72 427.793 698.882C427.949 704.333 427.88 709.797 427.887 715.25L427.838 729.547L413.601 729.611C414.316 716.03 413.603 702.202 413.583 688.591C413.565 675.664 414.223 662.571 413.805 649.671C418.193 649.975 422.796 649.579 427.194 649.444C427.375 652.035 427.399 654.651 427.488 657.247C432.936 651.627 437.338 649.055 445.202 648.203ZM445.049 696.379C449.875 695.184 453.561 693.694 456.324 689.244C459.307 684.44 459.803 678.163 458.395 672.762C457.191 668.144 454.434 664.095 450.155 661.841C447.598 660.495 444.706 659.936 441.837 660.018C437.134 661.091 433.544 662.871 430.775 667.031C427.573 671.841 427.103 678.03 428.402 683.553C429.415 687.857 431.739 691.856 435.562 694.225C438.476 696.031 441.673 696.609 445.049 696.379Z"/><path fill="#CBB190" d="M551.558 627.154L566.178 627.075C565.826 635.701 566.032 644.372 566.028 653.005C566.026 657.508 566.317 662.304 565.542 666.745C576.755 653.318 588.718 640.57 600.27 627.441C605.882 626.993 611.507 627.646 617.125 626.97C608.865 638.845 594.918 649.871 587.438 661.526L607.282 689.246C611.62 695.456 616.039 701.418 621.11 707.065L603.687 707.352C599.581 703.586 596.26 697.61 593.037 693.018C588.014 685.868 582.936 678.757 577.802 671.687C573.867 676.412 569.575 680.884 565.42 685.419C565.314 692.553 565.766 699.776 566.034 706.907L552.003 706.944C552.066 688.651 551.918 670.358 551.558 652.069C551.471 643.769 551.885 635.447 551.558 627.154Z"/><path fill="#232E40" d="M301.114 625.74C308.427 625.885 315.098 626.435 321.749 629.732C328.342 633 335.361 639.695 337.711 646.769C336.507 649.477 327.952 652.076 325.102 653.265C324.181 651.471 323.123 649.595 321.893 647.994C318.013 642.948 312.192 639.765 305.85 639.222C299.026 638.588 291.252 640.853 286.073 645.307C280.502 650.098 277.585 657.279 277.083 664.498C276.521 672.574 279.011 681.093 284.448 687.182C288.992 692.272 295.61 695.599 302.458 695.884C308.78 696.147 315.051 693.733 319.767 689.572C322.17 687.024 323.808 684.375 325.414 681.295C329.534 683.414 333.674 685.335 337.946 687.129C336.681 689.74 335.551 692.255 333.783 694.582C327.844 702.396 318.985 706.744 309.363 707.987C298.54 709.385 286.992 706.937 278.282 700.195C269.836 693.733 264.409 684.09 263.267 673.517C261.881 661.686 264.432 649.67 272.045 640.306C279.557 631.065 289.492 626.876 301.114 625.74Z"/><path fill="#232E40" d="M369.8 648.232L370.487 648.198C377.916 647.877 385.945 648.843 391.552 654.228C394.376 656.939 396.27 660.457 397.251 664.229C399.505 672.898 398.129 696.518 398.305 706.941C393.849 706.845 389.407 706.949 384.953 707.055C384.868 704.585 384.893 702.103 384.87 699.631C384.138 700.477 383.397 701.327 382.588 702.1C377.97 706.509 371.5 708.617 365.174 708.356C358.069 708.063 353.144 705.361 348.471 700.194C346.661 696.897 345.547 693.84 345.407 690.038C345.264 686.152 346.627 682.507 349.331 679.709C357.34 671.42 373.039 673.058 383.546 673.097C383.602 669.248 383.617 665.81 380.852 662.827C378.777 660.588 375.787 659.783 372.813 659.792C365.887 659.814 360.598 663.092 355.857 667.789C353.65 664.951 351.331 662.15 349.475 659.066C349.437 657.909 349.371 657.533 350.063 656.54C353.587 651.483 364.103 649.063 369.8 648.232ZM376.391 696.292C379.611 694.636 381.998 693.266 383.096 689.626C383.811 687.256 383.748 684.357 383.894 681.884C378.471 681.804 372.853 681.557 367.456 682.137C364.703 682.649 362.283 683.443 360.704 685.933C359.763 687.417 359.561 689.156 359.998 690.846C360.586 693.12 362.226 694.982 364.279 696.074C368.251 698.189 372.274 697.511 376.391 696.292Z"/><path fill="#CBB190" d="M731.178 648.214C738.648 648.118 746.051 648.745 751.747 654.232C754.659 657.037 756.536 660.545 757.528 664.446C759.854 673.588 758.533 696.617 758.596 707.152C754.149 707.11 749.703 707.192 745.261 707.398C745.149 704.795 745.115 702.347 745.433 699.748C745.035 700.089 744.633 700.427 744.228 700.761C737.877 706.023 730.991 709.05 722.515 708.096C716.222 707.388 711.765 704.441 707.972 699.524C706.528 696.674 705.758 693.741 705.637 690.538C705.489 686.6 706.815 682.926 709.63 680.138C717.783 672.063 733.763 673.447 744.241 673.429C744.026 669.353 743.619 665.776 740.501 662.823C738.136 660.583 734.86 659.783 731.676 659.85C724.837 659.994 720.384 663.157 715.828 667.845C714.272 665.228 710.191 661.492 709.715 658.623C709.947 657.34 710.248 656.533 711.137 655.591C715.737 650.717 724.719 648.635 731.178 648.214ZM734.763 697.199C738.726 695.669 741.091 693.87 743.928 690.744C744.181 687.827 744.352 684.968 744.349 682.039C739.519 682.048 734.589 681.846 729.772 682.146C726.488 682.517 723.611 682.87 721.428 685.656C720.276 687.098 719.775 688.956 720.046 690.782C720.357 693.001 721.708 694.915 723.571 696.121C727.103 698.407 730.847 697.75 734.763 697.199Z"/><path fill="#232E40" d="M505.832 648.201C506.866 648.145 507.901 648.114 508.937 648.107C516.038 648.088 523.804 649.551 528.9 654.892C531.613 657.737 533.302 661.372 534.083 665.202C535.804 673.646 534.588 696.896 534.548 706.982L521.537 707.161L521.535 699.701C520.415 700.94 519.198 702.155 517.881 703.182C512.468 707.408 505.003 709.038 498.27 707.994C492.381 707.08 488.084 704.14 484.637 699.364C482.941 696.093 482.038 693.022 482.049 689.301C482.059 685.412 483.709 681.929 486.544 679.302C495.028 671.438 509.89 673.028 520.542 673.166C520.565 670.378 520.254 667.905 519.753 665.176L519.467 664.841C518.947 664.224 518.435 663.602 517.877 663.018C515.493 660.522 511.551 659.503 508.187 659.578C501.466 659.727 497.045 663.052 492.633 667.692C490.268 664.415 487.692 661.335 485.102 658.236C491.034 651.65 497.415 649.603 505.832 648.201ZM507.111 697.715C512.331 697.046 515.584 695.423 519.646 692.119C520.585 688.58 520.726 685.082 520.911 681.44L511.049 681.729C506.399 681.829 501.638 681.628 498.178 685.341C496.774 686.847 495.826 688.92 496.074 691.011C496.304 692.947 497.503 694.497 499.062 695.589C501.455 697.265 504.258 697.671 507.111 697.715Z"/><path fill="#CBB190" d="M475.959 419.036C484.411 409.992 495.35 404.883 507.797 404.374C517.928 403.959 526.922 407.221 535.757 411.87C529.189 418.716 487.197 462.864 482.908 463.46C477.233 460.675 470.362 452.143 465.733 447.433C466.426 444.581 466.55 441.585 467.091 438.694C468.503 431.149 471.816 425.389 475.959 419.036Z"/><path fill="#CBB190" d="M665.511 634.022L679.877 633.889C679.72 639.091 679.683 644.295 679.765 649.498L695.943 649.392L695.976 661.038C690.492 660.988 685.007 661.001 679.523 661.078C679.753 668.332 678.255 683.624 679.942 689.738C680.555 691.962 681.764 693.887 683.87 694.945C687.191 696.612 690.53 695.349 693.788 694.235C694.652 696.478 695.693 698.656 696.683 700.845L698.321 704.522C694.032 706.535 689.699 708.128 684.896 708.204C679.622 708.287 674.662 706.599 670.99 702.722C662.901 694.177 664.977 672.883 665.412 661.477L655.884 661.397L655.929 649.439L665.454 649.059C665.418 644.047 665.437 639.034 665.511 634.022Z"/><path fill="#7AA6C1" d="M628.354 420.787C631.578 423.956 634.642 427.716 638.063 430.627C623.165 447.446 606.515 463.25 590.606 479.128C582.98 486.74 575.518 495.77 566.996 502.281L557.215 492.506C564.845 484.989 572.277 477.27 579.993 469.84C583.527 467.743 588.253 461.71 591.403 458.521L628.354 420.787Z"/><path fill="#CBB190" d="M630.15 649.421C634.934 649.422 639.719 649.397 644.503 649.346C643.715 668.559 643.676 688.199 644.389 707.416C639.637 707.027 634.86 707.039 630.109 707.453C630.537 688.147 630.14 668.738 630.15 649.421Z"/><path fill="#232E40" d="M620.442 412.19C630.74 410.186 641.032 408.012 651.356 406.158C649.366 416.767 647.254 427.354 645.021 437.915C642.824 435.326 640.727 432.757 638.063 430.627C634.642 427.716 631.578 423.956 628.354 420.787C625.719 417.922 623.12 415.013 620.442 412.19Z"/><path fill="#CBB190" d="M634.02 622.558C635.267 622.454 636.525 622.36 637.776 622.46C640.331 622.681 642.677 623.956 644.252 625.979C645.801 627.962 646.415 630.518 645.935 632.988C645.269 636.54 643.161 638.315 640.275 640.213C638.823 640.598 637.449 640.96 635.938 640.695C633.408 640.25 631.193 638.732 629.865 636.533C628.481 634.187 628.095 631.384 628.794 628.752C629.607 625.594 631.324 624.188 634.02 622.558Z"/></svg>