<?xml version="1.0" encoding="UTF-8" standalone="no"?>
<svg
   width="279.70596"
   height="271.84497"
   viewBox="0 0 279.70596 271.84497"
   version="1.1"
   id="svg20"
   sodipodi:docname="unnamed.svg"
   inkscape:version="1.4.2 (1:1.4.2+202505120738+ebf0e940d0)"
   xmlns:inkscape="http://www.inkscape.org/namespaces/inkscape"
   xmlns:sodipodi="http://sodipodi.sourceforge.net/DTD/sodipodi-0.dtd"
   xmlns="http://www.w3.org/2000/svg"
   xmlns:svg="http://www.w3.org/2000/svg">
  <defs
     id="defs20" />
  <sodipodi:namedview
     id="namedview20"
     pagecolor="#ffffff"
     bordercolor="#000000"
     borderopacity="0.25"
     inkscape:showpageshadow="2"
     inkscape:pageopacity="0.0"
     inkscape:pagecheckerboard="0"
     inkscape:deskcolor="#d1d1d1"
     inkscape:zoom="0.95214844"
     inkscape:cx="228.43077"
     inkscape:cy="294.07179"
     inkscape:window-width="1080"
     inkscape:window-height="1888"
     inkscape:window-x="1920"
     inkscape:window-y="0"
     inkscape:window-maximized="1"
     inkscape:current-layer="svg20" />
  <path
     fill="#cbb190"
     d="m 193.04897,81.832972 c 10.344,-2.514 21.039,-4.061 31.278,-6.883 -2.327,10.496 -4.764,20.966 -7.311,31.410998 -2.719,-2.614 -5.488,-5.194 -8.102,-7.911998 -0.067,26.897998 0.431,53.979998 -0.571,80.851998 -7.716,7.43 -15.148,15.149 -22.778,22.666 -4.555,-4.227 -12.413,-15.108 -19.143,-14.962 -2.303,0.05 -5.369,2.939 -7.06,4.445 -7.588,6.76 -14.513,14.689 -21.718,21.895 -19.344,19.347 -38.462998,39.107 -58.166998,58.077 -7.549,0.121 -15.099,0.172 -22.649,0.153 -15.707,-0.94 -32.208,-0.08 -47.9960004,-0.049 l -0.049,-47.843 c 16.3770004,-15.479 31.5570004,-32.319 47.8630004,-47.888 5.814,-5.645 11.563,-11.357 17.246,-17.134 0.155,0.119 0.31,0.236 0.463,0.357 8.46,6.677 16.036,15.603 23.623,23.288 2.996998,3.036 6.039998,6.517 9.585998,8.914 1.348,0.912 2.67,1.347 4.317,1.196 2.594,-0.238 4.803,-1.765 6.751,-3.377 4.834,-4 9.084,-8.986 13.464,-13.493 5.46,-5.619 11.107,-11.065 16.609,-16.646 l 59.904,-60.902998 c -5.082,-5.488 -10.27,-10.877 -15.56,-16.164 z"
     id="path1" />
  <path
     fill="#232e40"
     d="m 8.7829716,223.68297 c 16.3770004,-15.479 31.5570004,-32.319 47.8630004,-47.888 0.621,11.31 0.23,22.824 0.229,34.159 l -0.047,61.621 c -15.707,-0.94 -32.208,-0.08 -47.9960004,-0.049 z"
     id="path2" />
  <path
     fill="#232e40"
     d="m 271.60997,156.88897 c 0.157,0.201 0.381,0.364 0.469,0.603 0.464,1.247 -0.202,103.174 -0.219,113.946 -57.231,-0.162 -114.462,-0.026 -171.691,0.407 4.137,-3.571 7.808,-7.709 11.746,-11.501 9.024,-9.884 19.088,-19.105 28.615,-28.522 8.754,-8.652 17.325,-17.931 26.615,-25.991 7.362,4.327 21.544,23.288 28.198,23.684 2.182,0.129 3.849,-0.946 5.497,-2.256 5.774,-4.588 10.761,-10.732 16.034,-15.924 l 41.158,-40.931 c 4.547,-4.458 8.853,-9.255 13.578,-13.515 z"
     id="path3" />
  <path
     fill="#232e40"
     d="m 99.488972,62.971972 c 0.284,-17.027 10.826998,-32.194 26.687998,-38.395 15.86,-6.2 33.895,-2.204 45.652,10.115 11.757,12.319 14.907,30.52 7.973,46.074 -8.122,18.22 -27.945,28.207998 -47.421,23.892998 -19.477,-4.316 -33.225998,-21.740998 -32.891998,-41.686998 z"
     id="path4" />
  <path
     fill="#cbb190"
     d="m 141.12497,47.948972 c 4.065,12.498 11.26,22.561 23.248,28.562 4.951,2.479 9.983,3.551 15.429,4.255 -8.122,18.22 -27.945,28.207998 -47.421,23.892998 -19.477,-4.316 -33.225998,-21.740998 -32.891998,-41.686998 12.636998,1.637 25.461998,-1.498 35.600998,-9.366 2.182,-1.693 4.07,-3.726 6.035,-5.657 z"
     id="path5" />
  <path
     fill="#7aa6c1"
     d="m 8.5199716,203.00397 c 0.716,-15.12 0.037,-30.604 0.063,-45.761 0.013,-7.706 -0.297,-15.615 1.068,-23.225 0.9030004,-5.127 2.6690004,-10.064 5.2210004,-14.6 6.242,-11.393 16.759,-19.833998 29.232,-23.462998 12.703,-3.65 26.343,-2.007 37.816,4.556998 10.54,5.97 19.095998,16.267 22.388998,27.985 -4.143,6.353 -7.455998,12.113 -8.867998,19.658 -0.541,2.891 -0.665,5.887 -1.358,8.739 -3.808,-3.726 -7.333,-7.739 -11.097,-11.511 -2.391,-2.397 -5.434,-5.456 -9.055,-5.367 -2.028,0.05 -3.592,0.795 -5.175,2.025 -5.922,4.601 -15.296,15.377 -20.967,21.205 -13.011,13.329 -26.102,26.582 -39.2690004,39.758 z"
     id="path6" />
  <path
     fill="#232e40"
     d="m 15.941972,46.415972 c -0.64,-3.468 -1.126,-6.853 -1.012,-10.387 0.317,-9.84 4.294,-19.275 11.545,-26.009 7.107,-6.6010005 17.012,-10.42400048 26.728,-9.98600048 9.702,0.437 19.42,4.95999998 25.882,12.23300048 6.087,6.853 9.591,16.945 8.997,26.099 -0.868,10.915 -4.499,20.067 -13.069,27.27 -7.435,6.248 -16.976,8.547 -26.544,7.679 -9.371,-0.85 -17.228,-4.966 -24.096,-11.228 -0.737,1.394 -1.488,2.694 -2.548,3.873 -2.317,2.581 -5.157,4.254 -8.678,4.36 -3.4340004,0.104 -6.6970004,-1.225 -9.1710004,-3.583 -2.499,-2.382 -4.02000002,-5.643 -3.97500002137,-9.122 0.0390000014,-3.068 1.07500002137,-5.975 3.39300002137,-8.054 3.674,-3.295 7.9360004,-3.292 12.5480004,-3.145 z"
     id="path7" />
  <path
     fill="#cbb190"
     d="m 57.912972,22.817972 c 4.54,5.717 11.539,10.867 18.704,12.665 3.554,0.892 7.411,1.063 11.026,1.722 l 0.439,1.161 c -0.868,10.915 -4.499,20.067 -13.069,27.27 -7.435,6.248 -16.976,8.547 -26.544,7.679 -9.371,-0.85 -17.228,-4.966 -24.096,-11.228 -3.021,-3.467 -5.059,-7.341 -7.134,-11.413 4.901,-0.318 9.507,-1.11 14.132,-2.791 12.669,-4.603 20.959,-12.992 26.542,-25.065 z"
     id="path8" />
  <path
     fill="#cbb190"
     d="m 104.30897,128.49697 c 8.452,-9.044 19.391,-14.153 31.838,-14.662 10.131,-0.415 19.125,2.847 27.96,7.496 -6.568,6.846 -48.56,50.994 -52.849,51.59 -5.675,-2.785 -12.545998,-11.317 -17.174998,-16.027 0.693,-2.852 0.817,-5.848 1.358,-8.739 1.412,-7.545 4.724998,-13.305 8.867998,-19.658 z"
     id="path15" />
  <path
     fill="#7aa6c1"
     d="m 256.70397,130.24797 c 3.224,3.169 6.288,6.929 9.709,9.84 -14.898,16.819 -31.548,32.623 -47.457,48.501 -7.626,7.612 -15.088,16.642 -23.61,23.153 l -9.781,-9.775 c 7.63,-7.517 15.062,-15.236 22.778,-22.666 3.534,-2.097 8.26,-8.13 11.41,-11.319 z"
     id="path17" />
  <path
     fill="#232e40"
     d="m 248.79197,121.65097 c 10.298,-2.004 20.59,-4.178 30.914,-6.032 -1.99,10.609 -4.102,21.196 -6.335,31.757 -2.197,-2.589 -4.294,-5.158 -6.958,-7.288 -3.421,-2.911 -6.485,-6.671 -9.709,-9.84 -2.635,-2.865 -5.234,-5.774 -7.912,-8.597 z"
     id="path19" />
</svg>
